<svg xmlns="http://www.w3.org/2000/svg" width="78" height="78" viewBox="0 0 78 78"><defs><mask id="ehfyb" width="2" height="2" x="-1" y="-1"><path fill="#fff" d="M12 12h54v54H12z"/><path d="M39 12c14.912 0 27 12.088 27 27S53.912 66 39 66 12 53.912 12 39s12.088-27 27-27z"/></mask><filter id="ehfya" width="116" height="116" x="-19" y="-19" filterUnits="userSpaceOnUse"><feOffset in="SourceGraphic" result="FeOffset1048Out"/><feGaussianBlur in="FeOffset1048Out" result="FeGaussianBlur1049Out" stdDeviation="8.4 8.4"/></filter></defs><g><g opacity=".3"><g filter="url(#ehfya)"><path fill="none" d="M39 12c14.912 0 27 12.088 27 27S53.912 66 39 66 12 53.912 12 39s12.088-27 27-27z" mask="url(&quot;#ehfyb&quot;)"/><path fill-opacity=".11" d="M39 12c14.912 0 27 12.088 27 27S53.912 66 39 66 12 53.912 12 39s12.088-27 27-27z"/></g><path fill="#fff" d="M39 12c14.912 0 27 12.088 27 27S53.912 66 39 66 12 53.912 12 39s12.088-27 27-27z"/></g><g opacity=".3"><path fill="#0b1b3c" d="M41.252 30.01c.436 0 .873.16 1.214.482.704.666.73 1.77.06 2.467l-5.334 5.548 5.334 5.554c.67.696.644 1.802-.06 2.466a1.773 1.773 0 0 1-2.488-.058l-6.491-6.757a1.736 1.736 0 0 1 0-2.408l6.491-6.752c.346-.36.81-.542 1.274-.542z"/></g></g></svg>