<svg xmlns="http://www.w3.org/2000/svg" width="84" height="84" viewBox="0 0 84 84"><defs><mask id="1hitb" width="2" height="2" x="-1" y="-1"><path fill="#fff" d="M15 15h54v54H15z"/><path d="M42 15c14.912 0 27 12.088 27 27S56.912 69 42 69 15 56.912 15 42s12.088-27 27-27z"/></mask><filter id="1hita" width="116" height="116" x="-16" y="-16" filterUnits="userSpaceOnUse"><feOffset in="SourceGraphic" result="FeOffset1023Out"/><feGaussianBlur in="FeOffset1023Out" result="FeGaussianBlur1024Out" stdDeviation="8.4 8.4"/></filter></defs><g><g><g filter="url(#1hita)"><path fill="none" d="M42 15c14.912 0 27 12.088 27 27S56.912 69 42 69 15 56.912 15 42s12.088-27 27-27z" mask="url(&quot;#1hitb&quot;)"/><path fill-opacity=".11" d="M42 15c14.912 0 27 12.088 27 27S56.912 69 42 69 15 56.912 15 42s12.088-27 27-27z"/></g><path fill="#fff" d="M42 15c14.912 0 27 12.088 27 27S56.912 69 42 69 15 56.912 15 42s12.088-27 27-27z"/></g><g><path fill="#0b1b3c" d="M39.748 49.99a1.76 1.76 0 0 1-1.214-.483 1.734 1.734 0 0 1-.06-2.467l5.334-5.548-5.334-5.553a1.735 1.735 0 0 1 .06-2.466 1.775 1.775 0 0 1 2.488.058l6.492 6.756a1.737 1.737 0 0 1 0 2.409l-6.492 6.752c-.346.36-.81.541-1.274.541z"/></g></g></svg>