<svg xmlns="http://www.w3.org/2000/svg" width="34" height="34" viewBox="0 0 34 34"><g><g><path fill="#00a5e4" d="M8.875 17.137h3.972v1.19h-1.365v7.26h-1.267v-7.26h-1.34zm11.626 2.788c.077.254.116.67.116 1.266v2.507c0 .583-.04 1.002-.116 1.269-.152.469-.457.708-.91.708-.405 0-.796-.226-1.177-.698v.61h-1.14v-8.45h1.14v2.76c.367-.453.758-.683 1.177-.683.453 0 .759.239.91.711zM19.477 21.1c0-.568-.167-.86-.496-.86-.187 0-.377.09-.568.279v3.837c.19.191.381.28.568.28.33 0 .496-.28.496-.849zm-4.328-1.809h1.14v6.297h-1.14v-.687c-.453.52-.883.774-1.302.774-.367 0-.62-.15-.734-.47-.062-.19-.1-.491-.1-.936v-4.978h1.139v4.636c0 .267 0 .406.01.443.028.177.114.267.266.267.23 0 .468-.176.72-.534zm.428-6.7V9.914c0-.588.179-.882.55-.882.37 0 .549.294.549.882v2.677c0 .588-.178.883-.55.883-.37 0-.549-.294-.549-.883zm18.214 4.487c0 9.345-7.565 16.92-16.896 16.92S-.001 26.424-.001 17.079C0 7.733 7.564.158 16.895.158s16.896 7.575 16.896 16.92zM18.774 8.072v5.031c0 .449.039.754.102.946.116.322.371.473.742.473.42 0 .857-.255 1.315-.781v.693h1.151V8.072h-1.15v4.863c-.256.361-.498.54-.728.54-.154 0-.245-.092-.27-.27-.014-.038-.014-.178-.014-.449V8.072zm-4.348 4.302c0 .676.116 1.179.36 1.496.319.435.767.652 1.34.652.577 0 1.026-.217 1.344-.651.241-.318.357-.82.357-1.497v-2.228c0-.68-.116-1.178-.357-1.499-.318-.435-.767-.653-1.343-.653-.574 0-1.022.218-1.34.653-.245.322-.36.82-.36 1.5zm-4.422-6.478c.27.792.55 1.587.819 2.379.41 1.191.665 2.088.78 2.702v3.458h1.277v-3.458l1.536-5.081h-1.291l-.871 3.353-.907-3.353zM26.321 21.68c0-1.472.002-3.032-.326-4.463-.231-1.004-1.051-1.744-2.038-1.855-2.338-.261-4.704-.262-7.059-.261-2.356-.001-4.722 0-7.06.261-.986.11-1.805.851-2.036 1.855-.329 1.43-.333 2.99-.333 4.463 0 1.472 0 3.033.33 4.463.23 1.003 1.05 1.744 2.036 1.854 2.338.262 4.704.263 7.059.262 2.356.001 4.721 0 7.059-.262.987-.11 1.807-.851 2.037-1.854.33-1.43.33-2.99.33-4.463zm-1.758-1.822c.239.318.352.81.352 1.483v1.305h-2.278v1.116c0 .583.191.874.582.874.28 0 .445-.153.51-.458a7.51 7.51 0 0 0 .024-.772h1.162v.165c0 .368-.013.621-.024.736a1.624 1.624 0 0 1-.266.683c-.315.458-.782.683-1.377.683-.596 0-1.05-.215-1.379-.645-.243-.315-.366-.811-.366-1.48v-2.206c0-.673.11-1.165.352-1.484.329-.43.782-.645 1.364-.645.572 0 1.025.215 1.344.645zm-.786 1.256c0-.582-.191-.874-.568-.874-.38 0-.572.291-.572.874v.582h1.14z"/></g></g></svg>