<svg xmlns="http://www.w3.org/2000/svg" width="34" height="34" viewBox="0 0 34 34"><g><g><path fill="#00a5e4" d="M20.06 17a3.247 3.247 0 0 1-3.24 3.254A3.247 3.247 0 0 1 13.58 17a3.246 3.246 0 0 1 3.24-3.253c1.79 0 3.24 1.456 3.24 3.253zm4.672-3.944c.047 1.03.056 1.338.056 3.944 0 2.607-.01 2.915-.056 3.944-.043.952-.202 1.469-.335 1.812a3.226 3.226 0 0 1-1.844 1.853c-.343.134-.858.293-1.805.336-1.025.047-1.332.057-3.928.057-2.595 0-2.902-.01-3.927-.057-.948-.043-1.462-.202-1.805-.336a3.02 3.02 0 0 1-1.117-.73 3.026 3.026 0 0 1-.727-1.123c-.133-.343-.292-.86-.335-1.812-.047-1.029-.057-1.337-.057-3.944 0-2.606.01-2.914.057-3.944.043-.951.202-1.468.335-1.813.156-.423.404-.807.727-1.121a2.993 2.993 0 0 1 1.118-.73c.342-.135.856-.293 1.804-.336 1.025-.047 1.332-.058 3.928-.058 2.595 0 2.902.01 3.927.058.948.043 1.462.201 1.805.336.422.156.804.405 1.117.73.323.314.571.698.727 1.121.134.345.292.862.335 1.813zM21.812 17c0-2.768-2.235-5.012-4.991-5.012-2.757 0-4.992 2.244-4.992 5.012 0 2.769 2.235 5.013 4.992 5.013 2.756 0 4.99-2.244 4.99-5.013zm1.363-5.21a1.17 1.17 0 0 0-1.166-1.172 1.17 1.17 0 0 0-1.167 1.172c0 .647.523 1.171 1.167 1.171s1.166-.524 1.166-1.17zM33.747 17c0 9.386-7.58 16.998-16.926 16.998C7.474 33.998-.106 26.386-.106 17-.106 7.614 7.474.002 16.821.002 26.167.002 33.747 7.614 33.747 17zm-7.207 0c0-2.65-.011-2.983-.059-4.024-.047-1.04-.211-1.748-.451-2.37a4.786 4.786 0 0 0-1.121-1.728 4.765 4.765 0 0 0-1.722-1.126c-.618-.24-1.325-.406-2.36-.453-1.036-.048-1.367-.06-4.006-.06-2.64 0-2.971.012-4.008.06-1.034.047-1.74.212-2.359.453a4.762 4.762 0 0 0-1.721 1.126 4.788 4.788 0 0 0-1.122 1.729c-.24.62-.404 1.33-.451 2.369C7.112 14.016 7.1 14.35 7.1 17s.011 2.984.06 4.025c.046 1.039.21 1.748.45 2.369a4.782 4.782 0 0 0 1.122 1.728 4.763 4.763 0 0 0 1.721 1.126c.618.242 1.325.406 2.36.454 1.036.047 1.367.059 4.007.059 2.64 0 2.97-.012 4.007-.06 1.034-.047 1.74-.211 2.359-.453a4.982 4.982 0 0 0 2.843-2.854c.24-.621.404-1.33.451-2.37.048-1.04.059-1.373.059-4.024z"/></g></g></svg>