<svg xmlns="http://www.w3.org/2000/svg" width="34" height="34" viewBox="0 0 34 34"><g><g><path fill="#00a5e4" d="M34 17c0 9.363-7.637 17-17 17S0 26.362 0 17C0 7.636 7.637 0 17 0s17 7.636 17 17zM19.58 12.048c.184 1.007 1.158 1.816 2.19 1.765 1.114.026 2.13-.954 2.158-2.066a2.163 2.163 0 0 0-.712-1.755 2.192 2.192 0 0 0-2.193-.456c-1.015.327-1.678 1.467-1.443 2.512zm-7.245 1.766c1.189.03 2.252-1.08 2.162-2.268.021-1.39-1.515-2.492-2.829-2.034-.886.256-1.542 1.117-1.561 2.038-.07 1.205 1.018 2.323 2.228 2.264zM29.283 23.86c.048-.402-.164-.757-.362-1.087-.848-1.471-1.691-2.945-2.54-4.415-.29-.526-.958-.824-1.537-.634-.591.155-1.034.762-.965 1.377-.027.375.264.649.363.985-.942 1.453-2.544 2.343-4.168 2.83-2.452.709-5.169.56-7.493-.51-1.102-.524-2.154-1.27-2.808-2.318.134-.292.355-.553.392-.884.105-.657-.351-1.344-1.002-1.492-.584-.168-1.233.145-1.518.672-.877 1.505-1.755 3.009-2.638 4.512-.16.263-.309.553-.29.872-.025.655.52 1.262 1.168 1.334.481.065.993-.157 1.264-.56.409-.637.739-1.323 1.17-1.945 1.169 1.277 2.702 2.187 4.334 2.74a13.91 13.91 0 0 0 8.328.12 10.93 10.93 0 0 0 4.748-2.868c.286.533.599 1.052.897 1.578.19.38.468.747.893.876.79.3 1.74-.34 1.764-1.183z"/></g></g></svg>