<svg xmlns="http://www.w3.org/2000/svg" width="34" height="34" viewBox="0 0 34 34"><g><g><path fill="#00a5e4" d="M33.847 17c0 9.388-7.579 16.998-16.926 16.998C7.573 33.998-.005 26.388-.005 17-.005 7.612 7.573.002 16.92.002c9.347 0 16.926 7.61 16.926 16.998zm-8.524-.068c.624-.878 1.296-1.723 1.926-2.597.588-.817 1.19-1.633 1.5-2.611.196-.624.022-.898-.614-1.007a1.986 1.986 0 0 0-.334-.02l-3.773-.005c-.465-.007-.72.197-.886.61-.222.56-.45 1.118-.714 1.657-.6 1.223-1.27 2.405-2.209 3.406-.207.22-.435.5-.782.384-.432-.158-.56-.874-.553-1.116l-.003-4.372c-.084-.625-.223-.903-.84-1.025h-3.918c-.523 0-.785.204-1.064.533-.161.189-.21.313.121.375.65.124 1.017.547 1.114 1.202.156 1.046.145 2.097.055 3.147a2.927 2.927 0 0 1-.2.899c-.19.45-.495.542-.897.265-.364-.25-.62-.605-.87-.96-.94-1.334-1.69-2.77-2.301-4.282-.177-.436-.482-.702-.942-.708a95.784 95.784 0 0 0-3.396 0c-.68.014-.884.345-.606.965 1.232 2.754 2.604 5.431 4.395 7.869.92 1.25 1.975 2.356 3.34 3.139 1.545.887 3.209 1.154 4.962 1.072.82-.039 1.067-.253 1.104-1.075.027-.56.09-1.12.366-1.625.27-.496.681-.59 1.154-.281.237.154.436.35.624.557.462.507.907 1.03 1.387 1.52.6.616 1.314.978 2.21.904h3.467c.558-.037.848-.723.527-1.35-.225-.44-.52-.83-.835-1.208-.708-.854-1.543-1.582-2.331-2.355-.713-.698-.758-1.103-.184-1.907z"/></g></g></svg>