<svg xmlns="http://www.w3.org/2000/svg" width="34" height="34" viewBox="0 0 34 34"><g><g><path fill="#00a5e4" d="M14.188 11.137a2.905 2.905 0 0 1 2.915-2.945 2.9 2.9 0 0 1 2.907 2.91 2.894 2.894 0 0 1-2.892 2.922 2.9 2.9 0 0 1-2.93-2.887zm19.81 5.785c0 9.344-7.565 16.92-16.896 16.92S.206 26.266.206 16.922C.206 7.577 7.771.002 17.102.002s16.896 7.575 16.896 16.92zm-22.843-5.829c-.02 3.262 2.648 5.962 5.9 5.973 3.285.011 5.97-2.627 5.987-5.882.016-3.332-2.625-6.029-5.916-6.037-3.284-.01-5.952 2.649-5.97 5.946zm12.73 6.584c-.336-.55-.923-.782-1.55-.62-.324.082-.603.247-.863.446-2.633 1.774-6.236 1.724-8.858-.08a2.853 2.853 0 0 0-.404-.24c-.728-.343-1.427-.183-1.845.415-.487.699-.425 1.378.192 1.97.159.154.339.286.514.423 1.407 1.103 3.05 1.551 4.873 1.742-.128.139-.21.233-.3.322-1.336 1.343-2.672 2.687-4.012 4.026-.278.276-.476.586-.496.99-.028.598.342 1.193.923 1.475.548.266 1.11.182 1.581-.284 1.05-1.037 2.095-2.08 3.123-3.141.258-.265.397-.323.69-.018 1 1.05 2.041 2.06 3.063 3.09.266.269.567.46.952.487.608.042 1.228-.347 1.504-.94.253-.54.157-1.118-.302-1.584-1.35-1.366-2.71-2.722-4.064-4.086-.094-.094-.165-.175-.316-.338.998-.12 2.006-.3 2.925-.657.973-.378 1.849-.919 2.577-1.667.474-.488.479-1.102.093-1.731z"/></g></g></svg>